<?xml version="1.0" standalone="no"?>
<!DOCTYPE svg PUBLIC "-//W3C//DTD SVG 20010904//EN"
 "http://www.w3.org/TR/2001/REC-SVG-20010904/DTD/svg10.dtd">
<svg version="1.0" xmlns="http://www.w3.org/2000/svg"
 width="867.000000pt" height="867.000000pt" viewBox="0 0 867.000000 867.000000"
 preserveAspectRatio="xMidYMid meet">
<metadata>
Created by potrace 1.14, written by Peter Selinger 2001-2017
</metadata>
<g transform="translate(0.000000,867.000000) scale(0.100000,-0.100000)"
fill="#000000" stroke="none">
<path d="M1018 8027 c-15 -17 -36 -43 -48 -57 -19 -22 -61 -71 -117 -137 -10
-12 -27 -32 -37 -45 -11 -12 -56 -66 -100 -118 -45 -52 -90 -105 -101 -119
-11 -13 -24 -29 -30 -35 -5 -6 -32 -38 -60 -71 -27 -33 -54 -65 -60 -71 -5 -6
-28 -32 -50 -58 -22 -27 -48 -58 -58 -70 -11 -11 -35 -41 -55 -65 -21 -24 -42
-49 -47 -55 -6 -6 -33 -38 -60 -71 -28 -33 -54 -65 -60 -71 -5 -6 -26 -31 -47
-55 -20 -24 -46 -55 -57 -68 -26 -29 -26 -42 -3 -61 68 -57 198 -166 202 -170
3 -3 46 -39 95 -80 50 -41 95 -79 101 -85 6 -5 32 -28 59 -50 26 -22 64 -54
84 -71 62 -53 205 -175 226 -192 69 -57 149 -125 306 -258 64 -55 151 -128
193 -164 43 -36 85 -71 93 -79 13 -13 2 -27 -91 -120 -58 -58 -109 -109 -113
-114 -4 -4 54 -66 128 -138 74 -72 238 -233 365 -357 232 -228 841 -824 1074
-1052 128 -125 737 -721 930 -910 320 -314 845 -828 985 -964 l160 -156 -50
-45 c-221 -204 -525 -276 -810 -193 -280 81 -487 298 -567 593 -14 55 -18 277
-4 336 l8 37 -184 180 c-100 98 -268 263 -373 365 l-190 185 -35 -61 c-96
-167 -169 -372 -204 -574 -20 -114 -23 -161 -21 -311 3 -183 5 -196 31 -324
78 -386 288 -739 590 -993 100 -84 113 -95 120 -95 3 0 18 -9 32 -21 172 -132
483 -256 742 -295 14 -2 52 -8 85 -13 62 -10 393 -7 455 3 311 55 549 145 771
294 160 108 97 49 1147 1077 123 121 279 274 347 340 705 690 856 840 910 905
209 252 339 541 389 870 15 93 16 430 3 490 -3 14 -8 43 -12 65 -13 86 -68
275 -107 365 -65 150 -171 327 -265 440 -20 25 -88 95 -150 156 l-113 112 42
33 c23 19 136 114 252 212 206 174 272 231 345 292 20 16 38 32 41 35 3 3 32
28 65 55 33 28 65 55 71 60 6 6 62 53 124 105 62 52 123 104 136 115 12 11 68
58 123 104 84 71 98 87 88 100 -25 31 -505 598 -762 901 -49 58 -109 128 -132
155 -23 28 -51 61 -63 75 -12 14 -34 40 -48 58 -13 18 -26 31 -28 29 -2 -1 3
-34 12 -72 8 -39 17 -83 20 -100 2 -16 7 -38 10 -47 3 -9 7 -25 9 -35 18 -87
137 -634 170 -778 7 -33 16 -73 19 -90 9 -45 15 -68 21 -90 5 -17 -2 -24 -37
-39 -24 -11 -94 -43 -157 -72 -62 -30 -115 -54 -117 -54 -2 0 -43 -18 -91 -41
-49 -22 -104 -48 -123 -57 -19 -8 -39 -18 -44 -20 -5 -3 30 52 77 123 48 70
85 130 83 134 -2 3 -322 6 -709 6 l-706 0 -27 60 c-26 56 -99 188 -116 210 -4
6 -35 48 -69 95 -107 148 -296 322 -471 433 -165 105 -403 199 -582 231 -16 3
-55 11 -85 18 -62 13 -424 18 -506 6 -270 -39 -494 -120 -718 -259 -152 -94
-193 -131 -615 -545 l-254 -249 -714 0 c-393 0 -714 -3 -714 -7 0 -3 36 -58
79 -122 44 -64 82 -120 86 -126 7 -11 -32 5 -153 62 -48 22 -116 54 -152 70
-237 106 -270 123 -265 138 2 8 6 26 9 40 2 14 30 140 61 280 69 312 164 746
170 780 3 14 10 44 16 68 7 23 10 45 7 47 -2 3 -16 -10 -30 -28z m3580 -1122
c493 -100 752 -647 515 -1085 -55 -102 -68 -116 -524 -561 -254 -248 -846
-828 -887 -868 l-44 -44 -117 116 c-137 135 -221 218 -648 635 l-321 314 206
201 c113 111 249 245 302 297 54 52 258 253 455 445 430 421 422 414 510 464
171 98 355 126 553 86z m1737 -1759 c86 -12 167 -36 245 -73 41 -20 77 -39 80
-42 3 -3 25 -20 50 -36 104 -70 224 -219 271 -336 35 -88 39 -103 57 -224 27
-179 -37 -413 -156 -565 -40 -52 -144 -155 -1221 -1209 -74 -72 -138 -130
-142 -129 -7 3 -112 105 -797 777 l-364 356 239 233 c660 647 936 917 1013
992 90 88 179 151 270 192 51 24 192 63 250 70 39 5 150 2 205 -6z"/>
</g>
</svg>
