<svg width="283" height="283" viewBox="0 0 283 283" fill="none" xmlns="http://www.w3.org/2000/svg">
<path fill-rule="evenodd" clip-rule="evenodd" d="M266.506 131.809L282.5 130.792L282.708 134.061L266.714 135.078L266.506 131.809ZM267.751 127.089C266.311 126.015 265.442 124.503 265.145 122.552C264.845 120.586 265.224 118.879 266.281 117.434C267.338 115.989 268.899 115.11 270.964 114.796L280.254 113.384L280.747 116.622L271.217 118.071C270.08 118.243 269.245 118.698 268.71 119.433C268.175 120.169 267.987 121.056 268.146 122.096C268.306 123.152 268.75 123.947 269.479 124.483C270.207 125.018 271.139 125.2 272.276 125.027L281.806 123.578L282.299 126.816L273.009 128.229C270.945 128.542 269.192 128.163 267.751 127.089ZM273.701 107.911C274.89 106.384 275.226 104.736 274.709 102.966C274.282 101.506 273.461 100.457 272.246 99.8172C271.03 99.1774 269.684 99.0735 268.208 99.5041C266.7 99.9441 265.603 100.778 264.917 102.006C264.23 103.234 264.109 104.609 264.554 106.131C265.076 107.917 266.108 109.081 267.65 109.626L268.909 109.259L267.67 105.02L270.397 104.224L272.555 111.607L268.009 112.933C266.542 112.586 265.239 111.88 264.101 110.813C262.967 109.762 262.165 108.429 261.693 106.815C260.988 104.577 261.186 102.412 262.287 100.322C263.388 98.2315 265.046 96.8795 267.262 96.2669C269.454 95.5764 271.573 95.8133 273.617 96.9779C275.66 98.1422 277 99.8704 277.636 102.162C278.439 104.91 277.959 107.393 276.195 109.609L273.701 107.911ZM264.252 88.6031C262.234 89.6683 260.101 89.8157 257.854 89.0456C255.607 88.2749 253.979 86.8486 252.971 84.7663C251.875 82.7276 251.679 80.5808 252.381 78.3255C253.083 76.0699 254.458 74.4382 256.506 73.4307C258.524 72.3652 260.653 72.2107 262.893 72.9667C265.133 73.7224 266.757 75.1416 267.766 77.2244C268.861 79.2626 269.061 81.4167 268.366 83.6868C267.672 85.9566 266.3 87.5953 264.252 88.6031ZM265.073 78.6242C264.396 77.2984 263.397 76.4279 262.076 76.0117C260.755 75.5956 259.41 75.7368 258.04 76.435C256.67 77.1334 255.766 78.139 255.327 79.4519C254.889 80.7648 255.008 82.0837 255.685 83.4096C256.355 84.7205 257.352 85.5879 258.677 86.0113C260.001 86.4348 261.349 86.2973 262.719 85.5989C264.074 84.908 264.973 83.9004 265.414 82.5768C265.856 81.2527 265.742 79.9353 265.073 78.6242ZM255.419 62.8805L252.719 64.6949L255.795 69.2652L253.478 70.8223L250.402 66.2519L247.037 68.5131L251.387 74.976L248.928 76.6279L242.749 67.447L256.048 58.5105L262.065 67.4499L259.606 69.1018L255.419 62.8805ZM247.896 60.7C246.143 62.236 244.141 62.8687 241.889 62.5983C239.636 62.3279 237.704 61.222 236.09 59.2812L232.686 55.2936L244.88 44.9022L248.284 48.8898C249.968 50.8133 250.776 52.8885 250.708 55.1146C250.64 57.341 249.703 59.2026 247.896 60.7ZM246.014 50.7923L244.753 49.3153L237.067 55.8651L238.328 57.342C239.378 58.5725 240.578 59.2616 241.927 59.4089C243.276 59.556 244.535 59.1312 245.706 58.1339C246.888 57.1263 247.503 55.9647 247.55 54.6488C247.597 53.3333 247.085 52.0476 246.014 50.7923ZM228.36 51.1631L239.613 39.7608L241.947 42.0608L230.694 53.4629L228.36 51.1631ZM221.119 45.1149L226.066 28.008L228.919 30.3852L225.777 40.4031L235.055 35.4967L237.89 37.8585L221.958 45.814L221.119 45.1149ZM223.615 246.855C224.956 248.72 225.392 250.805 224.923 253.109C224.454 255.412 223.229 257.224 221.248 258.543C218.886 260.163 216.376 260.482 213.718 259.5L214.554 256.602C216.377 257.254 218.049 257.059 219.571 256.015C220.825 255.155 221.567 254.047 221.795 252.694C222.024 251.34 221.703 250.03 220.832 248.763C219.944 247.47 218.808 246.689 217.426 246.421C216.044 246.152 214.699 246.466 213.391 247.364C211.856 248.416 211.071 249.76 211.034 251.393L211.777 252.473L215.42 249.974L217.028 252.315L210.682 256.668L208.002 252.767C207.874 251.266 208.139 249.808 208.798 248.395C209.443 246.991 210.46 245.813 211.848 244.861C213.756 243.493 215.875 243.006 218.207 243.398C220.538 243.79 222.341 244.942 223.615 246.855ZM200.441 16.3013L199.016 19.2236L203.97 21.6373L202.746 24.1453L197.792 21.7317L196.015 25.3738L203.021 28.787L201.723 31.4477L191.77 26.5991L198.793 12.205L208.484 16.9262L207.186 19.5869L200.441 16.3013ZM188.589 22.8348C186.505 23.7315 184.278 23.7453 181.907 22.8772L176.959 21.1376L182.279 6.03192L187.226 7.77162C189.65 8.58949 191.392 9.97821 192.452 11.937C193.513 13.8962 193.638 15.9766 192.829 18.1781C192.085 20.3861 190.672 21.9382 188.589 22.8348ZM189.487 13.1194C188.867 11.9582 187.778 11.1036 186.22 10.5558L184.388 9.91149L181.035 19.4326L182.867 20.0769C184.394 20.6139 185.778 20.6076 187.018 20.0577C188.258 19.5079 189.134 18.5084 189.645 17.0587C190.161 15.5938 190.108 14.2809 189.487 13.1194ZM171.142 19.746L175.122 4.23393L178.297 5.04725L174.317 20.5593L171.142 19.746ZM167.031 17.1033C165.565 18.1412 163.857 18.5003 161.908 18.1807C159.943 17.8583 158.436 16.9717 157.387 15.521C156.337 14.0703 155.982 12.3154 156.32 10.2564L157.842 0.990593L161.077 1.52135L159.516 11.0264C159.329 12.16 159.504 13.0942 160.039 13.8293C160.574 14.5649 161.361 15.0175 162.4 15.1879C163.454 15.3607 164.348 15.184 165.083 14.6568C165.818 14.1299 166.278 13.2999 166.464 12.1664L168.026 2.66121L171.261 3.19196L169.739 12.4576C169.4 14.5168 168.498 16.0652 167.031 17.1033ZM146.093 7.52646L153.786 7.76454L153.64 12.4937C152.855 13.7801 151.779 14.799 150.411 15.5495C149.06 16.3006 147.543 16.6501 145.86 16.598C143.512 16.5739 141.514 15.7151 139.866 14.0214C138.218 12.328 137.446 10.3337 137.55 8.03885C137.572 5.74178 138.454 3.80275 140.196 2.22195C141.937 0.641474 143.997 -0.0958543 146.374 0.00995971C149.238 0.0985874 151.451 1.32438 153.014 3.68683L150.625 5.53049C149.541 3.92744 148.076 3.09693 146.232 3.03998C144.711 2.9928 143.458 3.44791 142.473 4.40427C141.487 5.36115 140.971 6.60733 140.923 8.14315C140.875 9.71166 141.328 11.0123 142.284 12.045C143.24 13.0782 144.511 13.619 146.097 13.6681C147.957 13.7257 149.385 13.1065 150.381 11.8102L150.422 10.5005L146.005 10.3639L146.093 7.52646ZM136.707 282.773L133.302 272.841L128.733 282.284L125.049 282.059L133.173 266.221L134.264 266.288L140.415 283L136.707 282.773ZM122.175 18.0049C119.894 18.4068 117.792 17.9219 115.868 16.55C113.943 15.1781 112.822 13.3627 112.505 11.1039C112.124 8.85487 112.643 6.78593 114.062 4.89678C115.481 3.0078 117.338 1.9104 119.634 1.60442C121.914 1.20256 124.024 1.6863 125.965 3.05565C127.905 4.42517 129.034 6.23917 129.351 8.498C129.732 10.7471 129.205 12.8173 127.77 14.7088C126.335 16.6004 124.469 17.6991 122.175 18.0049ZM126.015 9.01409C125.783 7.51164 125.106 6.34347 123.986 5.5101C122.866 4.67673 121.578 4.37277 120.122 4.59787C118.65 4.82551 117.51 5.50134 116.701 6.62469C115.892 7.74837 115.606 9.06936 115.841 10.5878C116.076 12.1066 116.749 13.2793 117.86 14.1056C118.971 14.9324 120.262 15.2318 121.734 15.004C123.19 14.7789 124.326 14.1041 125.143 12.9791C125.96 11.8546 126.251 10.5329 126.015 9.01409ZM112.37 16.4457L113.173 19.2949L102.515 22.2939L98.1708 6.87978L108.549 3.95979L109.352 6.80902L102.129 8.84122L103.011 11.9707L108.317 10.4778L109.074 13.1636L103.768 14.6564L104.867 18.5567L112.37 16.4457ZM97.6361 21.5996C96.6783 23.6543 95.0254 25.1458 92.6772 26.0751L87.8258 28.0672L81.7343 13.2554L86.5857 11.2633C88.9391 10.2621 91.1643 10.14 93.2605 10.8967C95.3571 11.6535 96.8364 13.123 97.6986 15.3045C98.6144 17.4465 98.5935 19.5451 97.6361 21.5996ZM94.5767 16.5862C93.986 15.15 93.0723 14.2049 91.8354 13.7508C90.5987 13.297 89.2165 13.3835 87.6892 14.0106L85.8925 14.7483L89.732 24.0842L91.5287 23.3465C93.0258 22.7317 94.0546 21.8068 94.6141 20.5712C95.1734 19.3362 95.1613 18.0078 94.5767 16.5862ZM82.5515 30.8984L75.192 16.6731L78.1041 15.169L85.4637 29.3942L82.5515 30.8984ZM74.5539 35.9052L59.8054 25.91L62.9508 23.9344L71.5119 30.0207L69.7147 19.6863L72.8395 17.7237L75.4792 35.324L74.5539 35.9052ZM65.0599 240.454C66.9515 241.843 68.0712 243.706 68.4189 246.043C68.767 248.379 68.2284 250.449 66.8028 252.251C65.4418 254.103 63.5926 255.162 61.2548 255.429C58.9176 255.695 56.8146 255.092 54.9466 253.619C52.6736 251.875 51.5937 249.589 51.706 246.759L54.7233 246.657C54.6663 248.591 55.3693 250.119 56.8333 251.242C58.0406 252.168 59.3236 252.53 60.6823 252.329C62.0416 252.127 63.1889 251.417 64.1253 250.198C65.0814 248.953 65.4735 247.632 65.3012 246.236C65.1293 244.84 64.4138 243.659 63.1552 242.694C61.6785 241.562 60.1573 241.231 58.5911 241.702L57.7928 242.741L61.2984 245.43L59.5687 247.682L53.4625 242.998L56.3457 239.245C57.7348 238.659 59.2039 238.46 60.7526 238.649C62.2886 238.828 63.7243 239.43 65.0599 240.454ZM46.2192 246.133L43.9031 243.815L50.7258 237.01C51.5394 236.198 51.9436 235.338 51.9386 234.429C51.934 233.519 51.5597 232.693 50.8162 231.949C50.0614 231.193 49.2321 230.815 48.3274 230.814C47.4234 230.813 46.5644 231.218 45.7509 232.03L38.9283 238.835L36.6123 236.517L43.263 229.883C44.741 228.409 46.3787 227.679 48.1756 227.691C49.9729 227.705 51.5691 228.409 52.9643 229.806C54.371 231.214 55.0766 232.813 55.0806 234.603C55.085 236.393 54.3478 238.025 52.8699 239.499L46.2192 246.133ZM35.4004 47.9574L42.8229 40.144L44.9716 42.1817L39.806 47.6195L42.1659 49.8578L45.9607 45.8632L47.9859 47.784L44.1913 51.7788L47.1324 54.5682L52.4986 48.9193L54.6473 50.9572L47.0243 58.9817L35.4004 47.9574ZM42.4754 60.8741C42.7011 63.1297 42.0413 65.2551 40.4963 67.2516L37.3415 71.4383L24.5386 61.8057L27.6936 57.6191C29.2064 55.5581 31.0576 54.3185 33.2469 53.9003C35.4363 53.4824 37.459 53.992 39.3144 55.4284C41.1961 56.8036 42.2497 58.6191 42.4754 60.8741ZM37.2841 58.1226C36.0427 57.1885 34.7743 56.8415 33.4787 57.0816C32.1833 57.3221 31.0388 58.101 30.0456 59.419L28.877 60.9696L36.9467 67.041L38.1153 65.4903C39.0888 64.1985 39.5013 62.8785 39.3515 61.5305C39.2018 60.1831 38.5129 59.047 37.2841 58.1226ZM34.247 76.56L20.6584 68.07L22.3963 65.2927L35.9849 73.7827L34.247 76.56ZM30.4803 79.6728C31.0252 81.384 30.8496 83.119 29.9535 84.8774C29.0502 86.6504 27.7476 87.8166 26.0458 88.3755C24.3438 88.9349 22.5626 88.7408 20.7016 87.794L12.3272 83.5336L13.8147 80.6146L22.4053 84.9852C23.4298 85.5064 24.3736 85.6236 25.2372 85.3369C26.1009 85.0504 26.7712 84.4384 27.2488 83.5013C27.7336 82.55 27.8361 81.645 27.5563 80.7853C27.2767 79.9262 26.6248 79.236 25.6004 78.7149L17.0097 74.3443L18.497 71.4253L26.8714 75.6859C28.7323 76.6325 29.9352 77.9617 30.4803 79.6728ZM14.4646 91.7935C12.6076 92.3421 11.3731 93.4859 10.7617 95.2257C10.2573 96.6605 10.3129 97.9914 10.9279 99.2187C11.5431 100.446 12.5763 101.314 14.0271 101.824C15.5087 102.344 16.8866 102.304 18.1607 101.706C19.435 101.108 20.3348 100.06 20.8606 98.5644C21.4775 96.8096 21.3181 95.2621 20.3822 93.9219L19.145 93.4877L17.6805 97.6541L15 96.7132L17.551 89.4565L22.0184 91.0245C23.0088 92.1608 23.6558 93.4936 23.9587 95.0229C24.2672 96.5371 24.1425 98.0876 23.5845 99.6748C22.8525 101.904 21.4297 103.547 19.316 104.606C17.2027 105.664 15.0667 105.798 12.9085 105.006C10.7239 104.29 9.14031 102.865 8.15822 100.728C7.17613 98.5922 7.09485 96.4075 7.91388 94.1748C8.86342 91.4735 10.7013 89.7359 13.4272 88.9606L14.4646 91.7935ZM10.8858 112.987C13.1474 113.297 14.9667 114.418 16.3439 116.352C17.7209 118.287 18.2123 120.394 17.8179 122.673C17.5194 124.968 16.4274 126.827 14.5416 128.252C12.6559 129.676 10.587 130.202 8.33511 129.828C6.0733 129.519 4.2528 128.405 2.87325 126.487C1.49371 124.569 1.00131 122.47 1.39573 120.19C1.69404 117.896 2.78725 116.029 4.67555 114.588C6.56367 113.148 8.63375 112.614 10.8858 112.987ZM6.42742 117.209C5.29643 118.028 4.62091 119.165 4.40051 120.62C4.17759 122.092 4.48196 123.381 5.31262 124.488C6.14379 125.595 7.31963 126.264 8.84015 126.494C10.361 126.724 11.682 126.433 12.8036 125.62C13.9253 124.809 14.5974 123.667 14.8204 122.196C15.0408 120.74 14.7362 119.455 13.9062 118.34C13.0768 117.225 11.9016 116.552 10.3807 116.322C8.87641 116.094 7.55841 116.39 6.42742 117.209ZM3.06161 139.026L6.31394 139.125L6.4829 133.62L9.27403 133.706L9.10507 139.211L13.1584 139.335L13.3973 131.55L16.3584 131.641L16.0188 142.7L0 142.209L0.330679 131.441L3.29162 131.532L3.06161 139.026ZM7.89685 145.169C10.2175 144.946 12.2127 145.601 13.8821 147.136C15.552 148.67 16.4739 150.696 16.6491 153.213L17.0796 158.436L1.10738 159.751L0.676872 154.528C0.434723 151.984 0.992038 149.828 2.34865 148.06C3.7056 146.293 5.55511 145.33 7.89685 145.169ZM3.63123 154.309L3.79076 156.244L13.8582 155.415L13.6987 153.48C13.5658 151.869 12.9951 150.609 11.9861 149.702C10.9775 148.795 9.7069 148.404 8.1739 148.53C6.62522 148.658 5.44702 149.242 4.63929 150.282C3.8319 151.322 3.49566 152.665 3.63123 154.309ZM18.1776 164.315L2.37917 167.006L1.82826 163.777L17.6267 161.086L18.1776 164.315ZM20.5271 173.447L6.52506 184.462L5.59406 180.869L13.9931 174.561L3.59211 173.141L2.66719 169.57L20.2534 172.39L20.5271 173.447ZM20.5571 208.908L23.4182 207.36L20.7932 202.517L23.2487 201.188L25.8738 206.031L29.4396 204.101L25.7276 197.253L28.3325 195.843L33.6055 205.572L19.5131 213.198L14.3789 203.725L16.9839 202.315L20.5571 208.908ZM27.8386 211.799C29.7296 210.436 31.7833 209.997 33.9993 210.48C36.2157 210.963 38.0344 212.248 39.4566 214.333L42.4649 218.626L29.337 227.811L26.3286 223.518C24.835 221.444 24.2281 219.301 24.5074 217.091C24.787 214.882 25.8975 213.117 27.8386 211.799ZM28.7691 221.84L29.8834 223.43L38.158 217.641L37.0437 216.051C36.1154 214.726 34.9868 213.926 33.6576 213.651C32.329 213.377 31.0346 213.68 29.7746 214.561C28.5017 215.452 27.7791 216.55 27.6068 217.855C27.4348 219.16 27.8221 220.489 28.7691 221.84ZM46.3799 223.15L34.0944 233.433L31.9894 230.922L44.2749 220.639L46.3799 223.15ZM78.6575 252.536C80.9269 251.834 83.0833 252.027 85.1271 253.114C87.2149 254.115 88.6408 255.733 89.4047 257.968C90.1689 260.203 90.0215 262.331 88.9622 264.352C87.9609 266.402 86.3326 267.781 84.0777 268.49C81.823 269.2 79.6737 269.01 77.6297 267.923C75.5423 266.922 74.1093 265.301 73.3304 263.058C72.552 260.815 72.6921 258.684 73.7513 256.663C74.7529 254.614 76.3883 253.238 78.6575 252.536ZM76.3696 262.215C76.7943 263.545 77.664 264.541 78.9782 265.206C80.3074 265.878 81.6281 265.992 82.9403 265.55C84.2528 265.107 85.2561 264.2 85.9503 262.829C86.6446 261.458 86.7812 260.113 86.3601 258.795C85.9392 257.476 85.0644 256.481 83.7352 255.809C82.4209 255.145 81.104 255.032 79.7839 255.471C78.4644 255.909 77.4574 256.814 76.7631 258.186C76.0763 259.542 75.9451 260.886 76.3696 262.215ZM96.0717 272.229L97.1796 269.172L91.997 267.297L92.9477 264.673L98.1305 266.548L99.5112 262.739L92.1823 260.087L93.191 257.304L103.602 261.071L98.1452 276.127L88.0081 272.459L89.0168 269.676L96.0717 272.229ZM107.167 264.477C109.144 263.364 111.357 263.114 113.807 263.725L118.912 264.93L115.227 280.515L110.122 279.31C107.626 278.754 105.746 277.558 104.483 275.723C103.221 273.887 102.875 271.832 103.446 269.557C103.951 267.283 105.191 265.589 107.167 264.477ZM107.306 274.232C108.046 275.321 109.22 276.056 110.827 276.435L112.718 276.881L115.04 267.058L113.15 266.612C111.574 266.24 110.199 266.393 109.024 267.071C107.849 267.75 107.084 268.836 106.731 270.332C106.374 271.844 106.565 273.143 107.306 274.232ZM124.847 265.699L122.534 281.545L119.29 281.073L121.603 265.227L124.847 265.699ZM171.73 279.65L161.119 281.559L160.594 278.646L167.979 277.317L167.402 274.117L161.977 275.093L161.482 272.347L166.907 271.371L166.188 267.383L158.517 268.764L157.992 265.851L168.889 263.89L171.73 279.65ZM179.049 261.072L184.069 259.555L188.706 274.884L183.685 276.4C181.246 277.171 179.02 277.078 177.006 276.124C174.992 275.169 173.661 273.564 173.013 271.31C172.308 269.089 172.531 267.003 173.682 265.05C174.833 263.096 176.622 261.771 179.049 261.072ZM176.244 270.334C176.694 271.82 177.512 272.849 178.7 273.42C179.887 273.99 181.271 274.037 182.851 273.56L184.711 272.998L181.788 263.337L179.929 263.898C178.38 264.366 177.267 265.188 176.591 266.364C175.915 267.539 175.799 268.863 176.244 270.334ZM189.589 257.244L195.547 272.11L192.504 273.328L186.546 258.462L189.589 257.244ZM194.468 256.951C195.038 255.247 196.204 253.95 197.965 253.058C199.741 252.158 201.482 251.984 203.186 252.535C204.891 253.086 206.215 254.293 207.159 256.154L211.407 264.529L208.483 266.01L204.125 257.418C203.605 256.394 202.912 255.743 202.045 255.466C201.179 255.188 200.277 255.287 199.338 255.763C198.385 256.246 197.768 256.916 197.486 257.775C197.205 258.634 197.324 259.575 197.844 260.6L202.202 269.191L199.278 270.672L195.03 262.297C194.086 260.436 193.899 258.654 194.468 256.951ZM236.051 227.158C238.415 227.126 240.394 227.926 241.988 229.559C243.627 231.146 244.435 233.12 244.41 235.482C244.386 237.844 243.539 239.827 241.87 241.431C240.271 243.104 238.284 243.962 235.908 244.006C233.533 244.05 231.549 243.256 229.955 241.623C228.315 240.036 227.513 238.056 227.549 235.683C227.585 233.309 228.438 231.32 230.106 229.716C231.706 228.043 233.688 227.191 236.051 227.158ZM232.337 239.234C233.415 240.308 234.652 240.849 236.049 240.858C237.445 240.867 238.664 240.35 239.703 239.308C240.755 238.253 241.273 237.034 241.26 235.651C241.246 234.267 240.694 233.032 239.605 231.948C238.516 230.863 237.278 230.316 235.893 230.307C234.508 230.298 233.29 230.82 232.239 231.874C231.199 232.917 230.683 234.133 230.691 235.523C230.699 236.912 231.248 238.149 232.337 239.234ZM245.727 227.603L243.528 225.883L246.926 221.546L243.733 219.048L238.928 225.181L236.595 223.356L243.421 214.644L256.04 224.515L249.394 232.998L247.061 231.174L251.687 225.27L249.124 223.266L245.727 227.603ZM251.436 217.446C249.432 216.256 248.21 214.55 247.77 212.326C247.33 210.103 247.784 207.924 249.131 205.789L251.873 201.321L265.536 209.69L262.795 214.158C261.486 216.354 259.762 217.764 257.622 218.389C255.482 219.014 253.42 218.699 251.436 217.446ZM257.088 215.244C258.354 214.882 259.419 213.997 260.282 212.591L261.297 210.936L252.685 205.661L251.67 207.316C250.824 208.695 250.539 210.048 250.817 211.375C251.095 212.702 251.889 213.768 253.2 214.571C254.525 215.382 255.821 215.607 257.088 215.244ZM254.46 195.932L268.799 203.084L267.335 206.015L252.996 198.862L254.46 195.932ZM257.964 187.172L275.774 186.548L274.4 189.997L263.894 190.13L271.448 197.414L270.084 200.841L257.56 188.187L257.964 187.172ZM275.677 158.104L274.932 163.561L272.165 163.184L272.91 157.727L268.892 157.179L267.839 164.896L264.903 164.496L266.4 153.534L282.279 155.698L280.822 166.372L277.887 165.972L278.901 158.543L275.677 158.104ZM274.732 151.917C272.401 151.898 270.485 151.039 268.984 149.34C267.482 147.641 266.776 145.531 266.863 143.009L266.977 137.769L283 138.118L282.886 143.358C282.862 145.914 282.084 148 280.551 149.617C279.018 151.234 277.078 152 274.732 151.917ZM269.868 141.108L269.825 143.049C269.79 144.666 270.227 145.978 271.136 146.985C272.045 147.991 273.268 148.512 274.806 148.545C276.359 148.579 277.592 148.12 278.503 147.17C279.414 146.219 279.888 144.918 279.924 143.269L279.967 141.328L269.868 141.108Z" fill="white"/>
</svg>
