<svg width="71" height="63" viewBox="0 0 71 63" fill="none" xmlns="http://www.w3.org/2000/svg">
<path d="M62.125 63H22.1875C19.7376 63 17.646 62.1201 15.9126 60.3603C14.1792 58.6006 13.3125 56.4771 13.3125 53.9899H8.875C6.42513 53.9899 4.3335 53.1101 2.6001 51.3503C0.866699 49.5905 0 47.467 0 44.9799V8.93966C0 6.45251 0.866699 4.34078 2.6001 2.60447C4.3335 0.868156 6.42513 0 8.875 0H62.125C64.5749 0 66.6665 0.868156 68.3999 2.60447C70.1333 4.34078 71 6.45251 71 8.93966V53.9899C71 56.4771 70.1333 58.6006 68.3999 60.3603C66.6665 62.1201 64.5749 63 62.125 63ZM28.8438 44.9799C33.2812 44.9799 35.5 42.7274 35.5 38.2223C35.5 33.7173 33.2812 31.4648 28.8438 31.4648C24.4062 31.4648 22.1875 33.7173 22.1875 38.2223C22.1875 42.7274 24.4062 44.9799 28.8438 44.9799ZM59.9062 8.93966H15.0459C13.3356 8.93966 11.8796 9.52626 10.6777 10.6994C9.47591 11.8726 8.875 13.3039 8.875 14.9933V38.9966C8.875 40.3575 9.29102 41.5659 10.123 42.6218C10.9551 43.6777 12.0182 44.3698 13.3125 44.6983V22.4547C13.3125 19.9676 14.1792 17.8441 15.9126 16.0844C17.646 14.3246 19.7376 13.4447 22.1875 13.4447H59.9062C60.5072 13.4447 61.0272 13.2335 61.4663 12.8112C61.9054 12.3888 62.125 11.8609 62.125 11.2274C62.125 10.5939 61.9054 10.0542 61.4663 9.60838C61.0272 9.16257 60.5072 8.93966 59.9062 8.93966Z" fill="url(#paint0_linear)"/>
<defs>
<linearGradient id="paint0_linear" x1="35.5" y1="0" x2="35.5" y2="63" gradientUnits="userSpaceOnUse">
<stop stop-color="#E50012"/>
<stop offset="0.0001" stop-color="#F30013"/>
<stop offset="1" stop-color="#740000"/>
</linearGradient>
</defs>
</svg>
