<svg width="867" height="747" viewBox="0 0 867 747" fill="none" xmlns="http://www.w3.org/2000/svg">
<path fill-rule="evenodd" clip-rule="evenodd" d="M261.736 124.529H118.145L136.321 151.213L78.1572 124.529L105.421 0L0 124.529L140.401 243.284L117.436 265.762L482.314 622.884L478.432 626.684C446.275 658.157 394.138 658.157 361.982 626.684C340.818 605.97 333.583 576.786 340.276 550.281L265.608 477.2C222.88 545.486 231.715 635.956 292.111 695.069C362.857 764.31 477.557 764.31 548.302 695.069L750.149 497.512C820.899 428.266 820.895 316.008 750.149 246.766C745.805 242.514 741.294 238.522 736.639 234.792L867 124.529L761.579 0L788.843 124.529L730.679 151.213L748.855 124.529H606.068C597.494 104.039 584.708 84.8409 567.71 68.2043C499.108 1.0601 387.88 1.06567 319.283 68.2043L261.736 124.529ZM680.279 429.126L552.184 554.499L435.733 440.524L563.829 315.151C595.989 283.674 648.122 283.678 680.279 315.151C712.435 346.624 712.439 397.65 680.279 429.126ZM497.84 242.967L365.863 372.139L257.176 265.762L389.153 136.59C419.16 107.22 467.827 107.215 497.84 136.59C527.853 165.965 527.847 213.597 497.84 242.967Z" fill="url(#paint0_linear)"/>
<defs>
<linearGradient id="paint0_linear" x1="433.5" y1="0" x2="433.5" y2="747" gradientUnits="userSpaceOnUse">
<stop stop-color="#E50012"/>
<stop offset="0.0001" stop-color="#F30013"/>
<stop offset="1" stop-color="#740000"/>
</linearGradient>
</defs>
</svg>
