<svg width="174" height="116" viewBox="0 0 174 116" fill="none" xmlns="http://www.w3.org/2000/svg">
<g opacity="0.1">
<path d="M87 -27C69.7931 -27 52.9725 -21.8975 38.6654 -12.3379C24.3583 -2.77818 13.2073 10.8094 6.62252 26.7065C0.0376957 42.6037 -1.68519 60.0965 1.67172 76.9728C5.02863 93.8492 13.3146 109.351 25.4817 121.518C37.6489 133.685 53.1508 141.971 70.0272 145.328C86.9035 148.685 104.396 146.962 120.293 140.377C136.191 133.793 149.778 122.642 159.338 108.335C168.898 94.0275 174 77.2069 174 60C174 48.575 171.75 37.2618 167.378 26.7065C163.005 16.1512 156.597 6.5604 148.518 -1.5183C140.44 -9.59699 130.849 -16.0054 120.293 -20.3775C109.738 -24.7497 98.425 -27 87 -27ZM87 129.6C73.2344 129.6 59.778 125.518 48.3323 117.87C36.8867 110.223 27.9659 99.3525 22.698 86.6347C17.4302 73.917 16.0519 59.9228 18.7374 46.4217C21.4229 32.9206 28.0517 20.5191 37.7854 10.7854C47.5191 1.05163 59.9207 -5.57713 73.4217 -8.26266C86.9228 -10.9482 100.917 -9.56988 113.635 -4.30202C126.353 0.965839 137.223 9.88664 144.87 21.3323C152.518 32.778 156.6 46.2344 156.6 60C156.6 78.459 149.267 96.1621 136.215 109.215C123.162 122.267 105.459 129.6 87 129.6Z" fill="black"/>
<path d="M87.0003 33.9C91.8052 33.9 95.7003 30.0049 95.7003 25.2C95.7003 20.3951 91.8052 16.5 87.0003 16.5C82.1954 16.5 78.3003 20.3951 78.3003 25.2C78.3003 30.0049 82.1954 33.9 87.0003 33.9Z" fill="black"/>
<path d="M87.0003 42.5999C84.6929 42.5999 82.48 43.5165 80.8485 45.1481C79.2169 46.7797 78.3003 48.9925 78.3003 51.2999V94.7999C78.3003 97.1073 79.2169 99.3202 80.8485 100.952C82.48 102.583 84.6929 103.5 87.0003 103.5C89.3077 103.5 91.5206 102.583 93.1521 100.952C94.7837 99.3202 95.7003 97.1073 95.7003 94.7999V51.2999C95.7003 48.9925 94.7837 46.7797 93.1521 45.1481C91.5206 43.5165 89.3077 42.5999 87.0003 42.5999Z" fill="black"/>
</g>
</svg>
