<svg width="28" height="32" viewBox="0 0 28 32" fill="none" xmlns="http://www.w3.org/2000/svg">
<path d="M11.3418 13.5178C10.4493 13.5178 9.74463 14.3008 9.74463 15.2559C9.74463 16.2111 10.4649 16.994 11.3418 16.994C12.2344 16.994 12.939 16.2111 12.939 15.2559C12.9547 14.3008 12.2344 13.5178 11.3418 13.5178ZM17.0572 13.5178C16.1647 13.5178 15.46 14.3008 15.46 15.2559C15.46 16.2111 16.1803 16.994 17.0572 16.994C17.9498 16.994 18.6544 16.2111 18.6544 15.2559C18.6544 14.3008 17.9498 13.5178 17.0572 13.5178Z" fill="#3A3A3A"/>
<path d="M24.6667 0.380371H3.68415C1.91472 0.380371 0.474121 1.82097 0.474121 3.60605V24.7766C0.474121 26.5616 1.91472 28.0022 3.68415 28.0022H21.4411L20.6112 25.1054L22.6155 26.9688L24.5102 28.7225L27.8768 31.6977V3.60605C27.8768 1.82097 26.4362 0.380371 24.6667 0.380371ZM18.6225 20.8306C18.6225 20.8306 18.0588 20.1573 17.589 19.5622C19.6403 18.9829 20.4233 17.6988 20.4233 17.6988C19.7812 18.1216 19.1706 18.4191 18.6225 18.6227C17.8396 18.9515 17.088 19.1708 16.352 19.296C15.0109 19.5429 13.6355 19.5376 12.2964 19.2804C11.5102 19.1265 10.7397 18.9012 9.99459 18.607C9.6018 18.456 9.21987 18.2781 8.8515 18.0747C8.80453 18.0433 8.75755 18.0277 8.71058 17.9964C8.67926 17.9807 8.6636 17.965 8.64794 17.9494C8.36609 17.7928 8.2095 17.6832 8.2095 17.6832C8.2095 17.6832 8.96111 18.9359 10.9498 19.5309C10.48 20.1259 9.90063 20.8306 9.90063 20.8306C6.44007 20.721 5.12474 18.4505 5.12474 18.4505C5.12474 13.4084 7.37959 9.32146 7.37959 9.32146C9.63444 7.63033 11.7797 7.67731 11.7797 7.67731L11.9363 7.86521C9.1177 8.67946 7.81803 9.91649 7.81803 9.91649C7.81803 9.91649 8.16252 9.72859 8.74189 9.46239C10.4174 8.72644 11.7484 8.52287 12.2964 8.4759C12.3904 8.46024 12.4687 8.44458 12.5626 8.44458C15.278 8.07705 18.0395 8.59313 20.4389 9.91649C20.4389 9.91649 19.2019 8.74209 16.5399 7.92784L16.7591 7.67731C16.7591 7.67731 18.9044 7.63033 21.1592 9.32146C21.1592 9.32146 23.4141 13.4084 23.4141 18.4505C23.4141 18.4505 22.0831 20.721 18.6225 20.8306Z" fill="#3A3A3A"/>
</svg>
