<svg width="31" height="31" viewBox="0 0 31 31" fill="none" xmlns="http://www.w3.org/2000/svg">
<path fill-rule="evenodd" clip-rule="evenodd" d="M15.8571 0.729248C7.56169 0.729248 0.842773 7.44817 0.842773 15.7436C0.842773 22.3874 5.14063 27.9991 11.1088 29.9885C11.8596 30.1198 12.1411 29.6694 12.1411 29.2753C12.1411 28.9187 12.1223 27.7363 12.1223 26.4789C8.34995 27.1733 7.37402 25.5592 7.07373 24.7147C6.90482 24.283 6.17287 22.9505 5.53476 22.5939C5.00926 22.3124 4.25854 21.618 5.51599 21.5992C6.69837 21.5804 7.54293 22.6877 7.82445 23.1382C9.17574 25.4091 11.3341 24.771 12.1974 24.3768C12.3288 23.4009 12.7229 22.744 13.1545 22.3687C9.81385 21.9933 6.32301 20.6983 6.32301 14.9553C6.32301 13.3225 6.90482 11.9712 7.86198 10.9202C7.71184 10.5449 7.18634 9.00591 8.01213 6.94143C8.01213 6.94143 9.26958 6.54731 12.1411 8.48041C13.3422 8.14258 14.6184 7.97367 15.8947 7.97367C17.1709 7.97367 18.4471 8.14258 19.6482 8.48041C22.5197 6.52854 23.7772 6.94143 23.7772 6.94143C24.603 9.00591 24.0775 10.5449 23.9273 10.9202C24.8845 11.9712 25.4663 13.3038 25.4663 14.9553C25.4663 20.7171 21.9567 21.9933 18.616 22.3687C19.1603 22.8379 19.6295 23.7387 19.6295 25.1463C19.6295 27.1545 19.6107 28.7685 19.6107 29.2753C19.6107 29.6694 19.8922 30.1386 20.6429 29.9885C23.6235 28.9821 26.2135 27.0665 28.0484 24.5112C29.8832 21.9558 30.8706 18.8895 30.8715 15.7436C30.8715 7.44817 24.1526 0.729248 15.8571 0.729248Z" fill="#3A3A3A"/>
</svg>
