<svg width="32" height="31" viewBox="0 0 32 31" fill="none" xmlns="http://www.w3.org/2000/svg">
<path d="M15.9016 10.3311C13.0555 10.3311 10.7328 12.6538 10.7328 15.5C10.7328 18.3462 13.0555 20.6689 15.9016 20.6689C18.7477 20.6689 21.0704 18.3462 21.0704 15.5C21.0704 12.6538 18.7477 10.3311 15.9016 10.3311ZM31.404 15.5C31.404 13.3596 31.4234 11.2385 31.3032 9.10193C31.183 6.62025 30.6169 4.41776 28.8022 2.60304C26.9836 0.784432 24.7851 0.222178 22.3034 0.101971C20.163 -0.0182348 18.042 0.00115338 15.9055 0.00115338C13.7651 0.00115338 11.644 -0.0182348 9.50752 0.101971C7.02589 0.222178 4.82344 0.78831 3.00875 2.60304C1.19018 4.42164 0.627935 6.62025 0.507731 9.10193C0.387527 11.2424 0.406915 13.3634 0.406915 15.5C0.406915 17.6366 0.387527 19.7615 0.507731 21.8981C0.627935 24.3797 1.19406 26.5822 3.00875 28.397C4.82732 30.2156 7.02589 30.7778 9.50752 30.898C11.6479 31.0182 13.7689 30.9988 15.9055 30.9988C18.0459 30.9988 20.1669 31.0182 22.3034 30.898C24.7851 30.7778 26.9875 30.2117 28.8022 28.397C30.6208 26.5784 31.183 24.3797 31.3032 21.8981C31.4273 19.7615 31.404 17.6404 31.404 15.5ZM15.9016 23.453C11.5006 23.453 7.94875 19.9011 7.94875 15.5C7.94875 11.0989 11.5006 7.547 15.9016 7.547C20.3026 7.547 23.8544 11.0989 23.8544 15.5C23.8544 19.9011 20.3026 23.453 15.9016 23.453ZM24.1802 9.07866C23.1526 9.07866 22.3228 8.24885 22.3228 7.22128C22.3228 6.19371 23.1526 5.3639 24.1802 5.3639C25.2077 5.3639 26.0375 6.19371 26.0375 7.22128C26.0378 7.46528 25.99 7.70695 25.8967 7.93243C25.8035 8.15792 25.6667 8.3628 25.4942 8.53533C25.3217 8.70787 25.1168 8.84467 24.8913 8.9379C24.6658 9.03113 24.4242 9.07897 24.1802 9.07866Z" fill="#3A3A3A"/>
</svg>
