<svg width="31" height="31" viewBox="0 0 31 31" fill="none" xmlns="http://www.w3.org/2000/svg">
<path fill-rule="evenodd" clip-rule="evenodd" d="M30.9401 15.4305C30.9401 23.8618 24.1043 30.6977 15.673 30.6977C7.24165 30.6977 0.405762 23.8618 0.405762 15.4305C0.405762 6.99922 7.24165 0.16333 15.673 0.16333C24.1043 0.16333 30.9401 6.99922 30.9401 15.4305ZM25.4541 14.232C25.701 14.5845 25.8409 15.0005 25.8562 15.4305C25.8628 15.8512 25.7502 16.2652 25.5314 16.6245C25.3125 16.9839 24.9964 17.2739 24.6195 17.4611C24.6373 17.685 24.6373 17.9089 24.6195 18.1328C24.6195 21.5527 20.6348 24.3313 15.7188 24.3313C10.8027 24.3313 6.81798 21.5527 6.81798 18.1328C6.80079 17.9092 6.80079 17.6846 6.81798 17.4611C6.52685 17.3248 6.26868 17.1271 6.06122 16.8815C5.85377 16.636 5.70193 16.3484 5.61617 16.0386C5.5304 15.7288 5.51273 15.4041 5.56438 15.0869C5.61603 14.7696 5.73576 14.4673 5.91535 14.2007C6.09495 13.9341 6.33014 13.7095 6.60476 13.5425C6.87939 13.3754 7.18693 13.2698 7.50626 13.2329C7.82558 13.1959 8.14911 13.2286 8.45461 13.3286C8.7601 13.4286 9.04032 13.5936 9.276 13.8122C11.0352 12.6191 13.1048 11.9664 15.2302 11.9343L16.36 6.63662C16.3727 6.57529 16.3974 6.51709 16.4327 6.46539C16.4681 6.41368 16.5133 6.36951 16.5659 6.33543C16.6184 6.30135 16.6772 6.27803 16.7388 6.26684C16.8005 6.25564 16.8637 6.25679 16.9249 6.27021L20.6653 7.0183C20.848 6.70446 21.1365 6.46601 21.4792 6.34575C21.8218 6.22548 22.1961 6.23128 22.5348 6.36209C22.8736 6.49291 23.1546 6.74019 23.3275 7.05953C23.5003 7.37887 23.5537 7.74937 23.478 8.10452C23.4023 8.45967 23.2025 8.77621 22.9145 8.99733C22.6264 9.21845 22.269 9.32966 21.9064 9.311C21.5437 9.29234 21.1996 9.14504 20.9358 8.89553C20.6719 8.64602 20.5057 8.31064 20.4669 7.9496L17.1997 7.26257L16.2073 12.0259C18.3069 12.071 20.3484 12.7232 22.0852 13.9038C22.317 13.6809 22.5944 13.5108 22.8982 13.4053C23.202 13.2998 23.5251 13.2613 23.8452 13.2924C24.1653 13.3236 24.4749 13.4238 24.7526 13.586C25.0304 13.7482 25.2697 13.9686 25.4541 14.232ZM10.846 16.1086C10.7345 16.2754 10.657 16.4624 10.6179 16.6591C10.5787 16.8558 10.5787 17.0583 10.6178 17.255C10.6968 17.6523 10.9303 18.0019 11.2671 18.227C11.6038 18.452 12.0162 18.5341 12.4135 18.4551C12.6102 18.416 12.7973 18.3386 12.964 18.2271C13.1308 18.1157 13.274 17.9726 13.3854 17.8058C13.6105 17.4691 13.6926 17.0567 13.6136 16.6595C13.5346 16.2622 13.3011 15.9126 12.9643 15.6875C12.6275 15.4625 12.2152 15.3804 11.8179 15.4594C11.4207 15.5383 11.071 15.7719 10.846 16.1086ZM15.6882 22.3313C17.0432 22.3873 18.3765 22.0336 19.4592 21.2168C19.5402 21.1378 19.5865 21.0299 19.5879 20.9168C19.5894 20.8037 19.5458 20.6947 19.4669 20.6137C19.4278 20.5736 19.3811 20.5416 19.3297 20.5195C19.2782 20.4975 19.2229 20.4857 19.1669 20.485C19.0538 20.4836 18.9448 20.5271 18.8638 20.6061C17.9372 21.2708 16.8116 21.5993 15.673 21.5374C14.5357 21.5882 13.4153 21.2488 12.4974 20.5756C12.4183 20.5106 12.3179 20.4775 12.2156 20.4825C12.1134 20.4875 12.0167 20.5304 11.9444 20.6027C11.872 20.6751 11.8292 20.7718 11.8241 20.874C11.8191 20.9762 11.8523 21.0766 11.9172 21.1557C13.0004 21.972 14.3331 22.3874 15.6882 22.3313ZM18.3358 18.288C18.5877 18.456 18.8676 18.6061 19.1691 18.6061C19.3762 18.6085 19.5816 18.5688 19.7728 18.4892C19.964 18.4097 20.137 18.2921 20.2813 18.1435C20.4256 17.995 20.5381 17.8186 20.612 17.6251C20.6859 17.4317 20.7196 17.2252 20.7111 17.0183C20.711 16.7546 20.6426 16.4954 20.5126 16.266C20.3825 16.0366 20.1953 15.8447 19.969 15.7092C19.7428 15.5737 19.4853 15.4991 19.2217 15.4926C18.9581 15.4862 18.6973 15.5481 18.4647 15.6725C18.2321 15.7968 18.0357 15.9792 17.8946 16.202C17.7535 16.4248 17.6725 16.6804 17.6595 16.9437C17.6466 17.2071 17.702 17.4694 17.8205 17.705C17.9391 17.9406 18.1166 18.1415 18.3358 18.288Z" fill="#3A3A3A"/>
</svg>
