<svg width="32" height="31" viewBox="0 0 32 31" fill="none" xmlns="http://www.w3.org/2000/svg">
<path fill-rule="evenodd" clip-rule="evenodd" d="M31.4743 15.4305C31.4743 23.8618 24.6384 30.6977 16.2071 30.6977C7.77583 30.6977 0.939941 23.8618 0.939941 15.4305C0.939941 6.99922 7.77583 0.16333 16.2071 0.16333C24.6384 0.16333 31.4743 6.99922 31.4743 15.4305ZM16.7542 11.4343C15.2695 12.0514 12.3013 13.33 7.85089 15.2689C7.12824 15.5565 6.74911 15.8376 6.71476 16.1125C6.65623 16.5781 7.23893 16.7613 8.03028 17.0094C8.13842 17.0438 8.25038 17.0781 8.36489 17.1163C9.14478 17.3695 10.1931 17.6659 10.7377 17.6773C11.2326 17.6875 11.7847 17.484 12.3942 17.0667C16.5519 14.2588 18.6982 12.8402 18.8331 12.8097C18.9285 12.788 19.0608 12.76 19.1499 12.8402C19.2389 12.9191 19.23 13.0692 19.2211 13.1099C19.1626 13.3555 16.8802 15.4789 15.697 16.5781C15.328 16.9203 15.0672 17.1633 15.0137 17.2193C14.8942 17.3427 14.772 17.4611 14.655 17.5743C13.9298 18.2715 13.3878 18.7957 14.6855 19.6506C15.3089 20.0616 15.8076 20.4013 16.3051 20.7397C16.8484 21.1099 17.3903 21.4789 18.0926 21.9394C18.2708 22.0565 18.4412 22.1773 18.6079 22.2957C19.2402 22.7473 19.8089 23.1519 20.5112 23.0883C20.9183 23.0501 21.3407 22.6672 21.5545 21.5234C22.0596 18.8186 23.0545 12.9611 23.2847 10.5463C23.2988 10.3458 23.2902 10.1444 23.2593 9.94578C23.2408 9.78539 23.1627 9.63781 23.0405 9.5323C22.8585 9.38344 22.5761 9.35163 22.4489 9.35418C21.8751 9.36436 20.9947 9.67097 16.7542 11.4343Z" fill="#3A3A3A"/>
</svg>
