<svg width="32" height="31" viewBox="0 0 32 31" fill="none" xmlns="http://www.w3.org/2000/svg">
<path d="M19.0281 15.2304L15.4018 13.5383C15.0853 13.3914 14.8254 13.556 14.8254 13.9064V17.0936C14.8254 17.444 15.0853 17.6086 15.4018 17.4617L19.0265 15.7696C19.3446 15.6211 19.3446 15.3789 19.0281 15.2304ZM16.4399 0C7.87942 0 0.939941 6.93948 0.939941 15.5C0.939941 24.0605 7.87942 31 16.4399 31C25.0005 31 31.9399 24.0605 31.9399 15.5C31.9399 6.93948 25.0005 0 16.4399 0ZM16.4399 21.7969C8.50588 21.7969 8.36702 21.0816 8.36702 15.5C8.36702 9.91839 8.50588 9.20312 16.4399 9.20312C24.374 9.20312 24.5129 9.91839 24.5129 15.5C24.5129 21.0816 24.374 21.7969 16.4399 21.7969Z" fill="#3A3A3A"/>
</svg>
