<svg width="8" height="13" viewBox="0 0 8 13" fill="none" xmlns="http://www.w3.org/2000/svg">
<path d="M0.20677 6.06775L7.78319 0.0292885C7.80299 0.0133841 7.82678 0.00350022 7.85184 0.00077184C7.87689 -0.00195654 7.90219 0.00258128 7.92483 0.0138643C7.94747 0.0251472 7.96654 0.0427177 7.97983 0.0645578C7.99313 0.0863979 8.00012 0.111622 8 0.137333V1.46302C8 1.54705 7.96134 1.62765 7.89748 1.6791L1.8471 6.49993L7.89748 11.3208C7.96302 11.3722 8 11.4528 8 11.5368V12.8625C8 12.9774 7.87059 13.0409 7.78319 12.9706L0.20677 6.9321C0.142376 6.88085 0.0902834 6.81528 0.0544534 6.74039C0.0186238 6.6655 0 6.58327 0 6.49993C0 6.41659 0.0186238 6.33435 0.0544534 6.25946C0.0902834 6.18457 0.142376 6.11901 0.20677 6.06775Z" fill="#656565"/>
</svg>
