<svg width="8" height="13" viewBox="0 0 8 13" fill="none" xmlns="http://www.w3.org/2000/svg">
<path d="M7.79323 6.06775L0.216807 0.0292885C0.197009 0.0133841 0.173217 0.00350022 0.148163 0.00077184C0.123108 -0.00195654 0.0978079 0.00258128 0.0751671 0.0138643C0.0525263 0.0251472 0.0334635 0.0427177 0.0201676 0.0645578C0.00687168 0.0863979 -0.000118003 0.111622 1.50726e-06 0.137333V1.46302C1.50726e-06 1.54705 0.0386568 1.62765 0.102522 1.6791L6.1529 6.49993L0.102522 11.3208C0.0369762 11.3722 1.50726e-06 11.4528 1.50726e-06 11.5368V12.8625C1.50726e-06 12.9774 0.129412 13.0409 0.216807 12.9706L7.79323 6.9321C7.85762 6.88085 7.90972 6.81528 7.94555 6.74039C7.98138 6.6655 8 6.58327 8 6.49993C8 6.41659 7.98138 6.33435 7.94555 6.25946C7.90972 6.18457 7.85762 6.11901 7.79323 6.06775Z" fill="#656565"/>
</svg>
