<svg width="9" height="14" viewBox="0 0 9 14" fill="none" xmlns="http://www.w3.org/2000/svg">
<path d="M0.232616 6.5345L8.75609 0.0315415C8.77836 0.0144137 8.80513 0.00376947 8.83332 0.000831212C8.8615 -0.00210704 8.88997 0.00277984 8.91544 0.0149307C8.94091 0.0270816 8.96235 0.0460037 8.97731 0.0695238C8.99227 0.0930439 9.00013 0.120208 9 0.147897V1.57556C9 1.66605 8.95651 1.75286 8.88466 1.80827L2.07798 6.99992L8.88466 12.1916C8.9584 12.247 9 12.3338 9 12.4243V13.8519C9 13.9757 8.85441 14.044 8.75609 13.9683L0.232616 7.46534C0.160172 7.41014 0.101568 7.33953 0.0612602 7.25889C0.0209513 7.17824 0 7.08967 0 6.99992C0 6.91018 0.0209513 6.82161 0.0612602 6.74096C0.101568 6.66031 0.160172 6.5897 0.232616 6.5345Z" fill="white"/>
</svg>
