<svg width="14" height="23" viewBox="0 0 14 23" fill="none" xmlns="http://www.w3.org/2000/svg">
<path d="M13.6382 10.7354L0.379412 0.0519403C0.344766 0.0238016 0.30313 0.00631476 0.259285 0.00148763C0.21544 -0.0033395 0.171164 0.00468896 0.131542 0.0246511C0.091921 0.0446133 0.0585612 0.0756996 0.0352933 0.11434C0.0120254 0.15298 -0.000206505 0.197607 2.63771e-06 0.243095V2.58854C2.63771e-06 2.73721 0.0676494 2.87982 0.179413 2.97085L10.7676 11.5L0.179413 20.0291C0.0647083 20.1202 2.63771e-06 20.2628 2.63771e-06 20.4115V22.7569C2.63771e-06 22.9602 0.226472 23.0725 0.379412 22.948L13.6382 12.2646C13.7508 12.1739 13.842 12.0579 13.9047 11.9254C13.9674 11.7929 14 11.6474 14 11.5C14 11.3526 13.9674 11.2071 13.9047 11.0746C13.842 10.9421 13.7508 10.8261 13.6382 10.7354Z" fill="white"/>
</svg>
