<svg width="14" height="23" viewBox="0 0 14 23" fill="none" xmlns="http://www.w3.org/2000/svg">
<path d="M0.361848 10.7353L13.6206 0.0518182C13.6552 0.0236796 13.6969 0.00619269 13.7407 0.00136556C13.7846 -0.00346157 13.8288 0.00456689 13.8685 0.0245291C13.9081 0.0444912 13.9414 0.0755775 13.9647 0.114218C13.988 0.152858 14.0002 0.197485 14 0.242973V2.58841C14 2.73709 13.9324 2.8797 13.8206 2.97072L3.23242 11.4999L13.8206 20.029C13.9353 20.12 14 20.2627 14 20.4113V22.7568C14 22.9601 13.7735 23.0723 13.6206 22.9479L0.361848 12.2645C0.249157 12.1738 0.157995 12.0578 0.095293 11.9253C0.0325909 11.7928 0 11.6473 0 11.4999C0 11.3524 0.0325909 11.2069 0.095293 11.0744C0.157995 10.9419 0.249157 10.8259 0.361848 10.7353Z" fill="white"/>
</svg>
