<svg width="14" height="14" viewBox="0 0 14 14" fill="none" xmlns="http://www.w3.org/2000/svg">
<path d="M11.8 5.19995H6.39995C5.73721 5.19995 5.19995 5.73721 5.19995 6.39995V11.8C5.19995 12.4627 5.73721 13 6.39995 13H11.8C12.4627 13 13 12.4627 13 11.8V6.39995C13 5.73721 12.4627 5.19995 11.8 5.19995Z" stroke="white" stroke-linecap="round" stroke-linejoin="round"/>
<path d="M2.8 8.8H2.2C1.88174 8.8 1.57652 8.67357 1.35147 8.44853C1.12643 8.22348 1 7.91826 1 7.6V2.2C1 1.88174 1.12643 1.57652 1.35147 1.35147C1.57652 1.12643 1.88174 1 2.2 1H7.6C7.91826 1 8.22348 1.12643 8.44853 1.35147C8.67357 1.57652 8.8 1.88174 8.8 2.2V2.8" stroke="white" stroke-linecap="round" stroke-linejoin="round"/>
</svg>
