<svg width="17" height="16" viewBox="0 0 17 16" fill="none" xmlns="http://www.w3.org/2000/svg">
<g clip-path="url(#clip0)">
<path fill-rule="evenodd" clip-rule="evenodd" d="M8.11133 0C3.69133 0 0.111328 3.58 0.111328 8C0.111328 11.54 2.40133 14.53 5.58133 15.59C5.98133 15.66 6.13133 15.42 6.13133 15.21C6.13133 15.02 6.12133 14.39 6.12133 13.72C4.11133 14.09 3.59133 13.23 3.43133 12.78C3.34133 12.55 2.95133 11.84 2.61133 11.65C2.33133 11.5 1.93133 11.13 2.60133 11.12C3.23133 11.11 3.68133 11.7 3.83133 11.94C4.55133 13.15 5.70133 12.81 6.16133 12.6C6.23133 12.08 6.44133 11.73 6.67133 11.53C4.89133 11.33 3.03133 10.64 3.03133 7.58C3.03133 6.71 3.34133 5.99 3.85133 5.43C3.77133 5.23 3.49133 4.41 3.93133 3.31C3.93133 3.31 4.60133 3.1 6.13133 4.13C6.77133 3.95 7.45133 3.86 8.13133 3.86C8.81133 3.86 9.49133 3.95 10.1313 4.13C11.6613 3.09 12.3313 3.31 12.3313 3.31C12.7713 4.41 12.4913 5.23 12.4113 5.43C12.9213 5.99 13.2313 6.7 13.2313 7.58C13.2313 10.65 11.3613 11.33 9.58133 11.53C9.87133 11.78 10.1213 12.26 10.1213 13.01C10.1213 14.08 10.1113 14.94 10.1113 15.21C10.1113 15.42 10.2613 15.67 10.6613 15.59C12.2494 15.0538 13.6294 14.0331 14.6071 12.6716C15.5848 11.31 16.1109 9.67619 16.1113 8C16.1113 3.58 12.5313 0 8.11133 0Z" fill="white"/>
</g>
<defs>
<clipPath id="clip0">
<rect width="16" height="16" fill="white" transform="translate(0.111328)"/>
</clipPath>
</defs>
</svg>
