<svg width="17" height="16" viewBox="0 0 17 16" fill="none" xmlns="http://www.w3.org/2000/svg">
<g clip-path="url(#clip0)">
<path fill-rule="evenodd" clip-rule="evenodd" d="M16.1113 8C16.1113 12.418 12.5293 16 8.11133 16C3.69333 16 0.111328 12.418 0.111328 8C0.111328 3.582 3.69333 0 8.11133 0C12.5293 0 16.1113 3.582 16.1113 8ZM8.39799 5.906C7.62 6.22933 6.06466 6.89933 3.73266 7.91533C3.354 8.066 3.15533 8.21333 3.13733 8.35733C3.10666 8.60133 3.41199 8.69733 3.82666 8.82733C3.88333 8.84533 3.94199 8.86333 4.00199 8.88333C4.41066 9.016 4.96 9.17133 5.24533 9.17733C5.50466 9.18267 5.79399 9.076 6.11333 8.85733C8.292 7.386 9.41666 6.64267 9.48733 6.62667C9.53733 6.61533 9.60666 6.60067 9.65333 6.64267C9.7 6.684 9.69533 6.76267 9.69066 6.784C9.66 6.91267 8.46399 8.02533 7.844 8.60133C7.65066 8.78067 7.514 8.908 7.486 8.93733C7.42333 9.002 7.35933 9.064 7.29799 9.12333C6.91799 9.48867 6.634 9.76333 7.31399 10.2113C7.64066 10.4267 7.90199 10.6047 8.16266 10.782C8.44733 10.976 8.73133 11.1693 9.09933 11.4107C9.19266 11.472 9.28199 11.5353 9.36933 11.5973C9.70066 11.834 9.99866 12.046 10.3667 12.0127C10.58 11.9927 10.8013 11.792 10.9133 11.1927C11.178 9.77533 11.6993 6.706 11.82 5.44067C11.8273 5.33561 11.8229 5.23006 11.8067 5.126C11.797 5.04195 11.756 4.96462 11.692 4.90933C11.5967 4.83133 11.4487 4.81467 11.382 4.816C11.0813 4.82133 10.62 4.982 8.39799 5.906Z" fill="white"/>
</g>
<defs>
<clipPath id="clip0">
<rect width="16" height="16" fill="white" transform="translate(0.111328)"/>
</clipPath>
</defs>
</svg>
