<svg width="16" height="16" viewBox="0 0 16 16" fill="none" xmlns="http://www.w3.org/2000/svg">
<path d="M14.8862 3.2914C14.3605 3.53807 13.7957 3.70474 13.202 3.78007C13.8146 3.39193 14.2729 2.78105 14.4914 2.06141C13.9159 2.4234 13.2859 2.6782 12.629 2.81474C12.1872 2.31532 11.6021 1.98429 10.9645 1.87305C10.3268 1.76182 9.67231 1.8766 9.10259 2.19957C8.53286 2.52255 8.07978 3.03565 7.81368 3.65921C7.54759 4.28277 7.48337 4.9819 7.63099 5.64807C6.46472 5.58607 5.3238 5.2651 4.28226 4.70601C3.24072 4.14691 2.32186 3.36218 1.58529 2.40274C1.33344 2.86274 1.18862 3.39607 1.18862 3.96407C1.18834 4.4754 1.30726 4.9789 1.53484 5.42989C1.76242 5.88089 2.09161 6.26543 2.49321 6.5494C2.02746 6.53371 1.57199 6.40046 1.1647 6.16074V6.20074C1.16465 6.9179 1.39894 7.61299 1.82781 8.16807C2.25668 8.72315 2.85372 9.10402 3.51762 9.24607C3.08556 9.36988 2.63258 9.38812 2.19288 9.29941C2.38019 9.91648 2.74506 10.4561 3.23641 10.8427C3.72775 11.2293 4.32098 11.4435 4.93303 11.4554C3.89404 12.319 2.61088 12.7875 1.28999 12.7854C1.05601 12.7855 0.822225 12.771 0.589844 12.7421C1.93063 13.6549 3.49139 14.1393 5.0854 14.1374C10.4813 14.1374 13.4311 9.4054 13.4311 5.3014C13.4311 5.16807 13.428 5.0334 13.4223 4.90007C13.9961 4.46072 14.4914 3.91667 14.885 3.2934L14.8862 3.2914Z" fill="white"/>
</svg>
